<svg width="127" height="39" viewBox="0 0 127 39" fill="none" xmlns="http://www.w3.org/2000/svg">
<path d="M18.6998 35.4H11.3998C11.1998 35.4 10.9998 35.2 10.9998 35V27.7C10.9998 27.5 11.1998 27.3 11.3998 27.3H18.6998C18.8998 27.3 19.0998 27.5 19.0998 27.7V35C19.0998 35.2 18.8998 35.4 18.6998 35.4ZM29.2998 33.6H21.9998C21.7998 33.6 21.5998 33.4 21.5998 33.2V25.9C21.5998 25.7 21.7998 25.5 21.9998 25.5H29.2998C29.4998 25.5 29.6998 25.7 29.6998 25.9V33.2C29.6998 33.4 29.4998 33.6 29.2998 33.6ZM29.2998 23.2H21.9998C21.7998 23.2 21.5998 23 21.5998 22.8V15.5C21.5998 15.3 21.7998 15.1 21.9998 15.1H29.2998C29.4998 15.1 29.6998 15.3 29.6998 15.5V22.8C29.6998 23 29.4998 23.2 29.2998 23.2ZM29.2998 12.8H21.9998C21.7998 12.8 21.5998 12.6 21.5998 12.4V5.1C21.5998 4.9 21.7998 4.7 21.9998 4.7H29.2998C29.4998 4.7 29.6998 4.9 29.6998 5.1V12.4C29.6998 12.6 29.4998 12.8 29.2998 12.8ZM7.99982 31.7H0.699829C0.499829 31.7 0.299805 31.5 0.299805 31.3V24C0.299805 23.8 0.499829 23.6 0.699829 23.6H7.99982C8.19982 23.6 8.39981 23.8 8.39981 24V31.3C8.39981 31.5 8.29982 31.7 7.99982 31.7ZM7.99982 21.3H0.699829C0.499829 21.3 0.299805 21.1 0.299805 20.9V13.6C0.299805 13.4 0.499829 13.2 0.699829 13.2H7.99982C8.19982 13.2 8.39981 13.4 8.39981 13.6V20.9C8.39981 21.1 8.29982 21.3 7.99982 21.3ZM7.99982 10.9H0.699829C0.499829 10.9 0.299805 10.7 0.299805 10.5V3.2C0.299805 3 0.499829 2.8 0.699829 2.8H7.99982C8.19982 2.8 8.39981 3 8.39981 3.2V10.5C8.39981 10.7 8.29982 10.9 7.99982 10.9ZM18.6998 25H11.3998C11.1998 25 10.9998 24.8 10.9998 24.6V17.3C10.9998 17.1 11.1998 16.9 11.3998 16.9H18.6998C18.8998 16.9 19.0998 17.1 19.0998 17.3V24.6C19.0998 24.8 18.8998 25 18.6998 25ZM18.6998 14.6H11.3998C11.1998 14.6 10.9998 14.4 10.9998 14.2V6.9C10.9998 6.7 11.1998 6.5 11.3998 6.5H18.6998C18.8998 6.5 19.0998 6.7 19.0998 6.9V14.2C19.0998 14.4 18.8998 14.6 18.6998 14.6ZM56.2998 10.2V17.1C56.2998 17.2 56.1998 17.4 55.9998 17.4H54.0998C53.9998 17.4 53.7998 17.3 53.7998 17.1V10.2C53.7998 8.6 52.8998 7.8 50.7998 7.8C48.6998 7.8 47.7998 8.6 47.7998 10.2V17.1C47.7998 17.2 47.6998 17.4 47.4998 17.4H45.5998C45.4998 17.4 45.2998 17.3 45.2998 17.1V10.2C45.2998 8.6 44.2998 7.8 42.2998 7.8C40.2998 7.8 39.2998 8.6 39.2998 10.1V17.1C39.2998 17.2 39.1998 17.4 38.9998 17.4H37.0998C36.9998 17.4 36.7998 17.3 36.7998 17.1V5.7C36.7998 5.6 36.8998 5.4 37.0998 5.4H38.9998C39.0998 5.4 39.2998 5.5 39.2998 5.7C39.2998 5.9 39.4998 6 39.6998 5.9C40.4998 5.6 41.0998 5.4 42.3998 5.4C44.4998 5.4 45.4998 5.8 46.4998 6.7C46.5998 6.8 46.6998 6.8 46.7998 6.7C47.6998 5.8 48.7998 5.4 50.8998 5.4C54.8998 5.4 56.2998 7 56.2998 10.2ZM58.4998 12.5V10.1C58.4998 6.9 60.4998 5.3 64.3998 5.3C68.3998 5.3 70.2998 6.9 70.2998 10.1V12.5C70.2998 15.7 68.2998 17.3 64.3998 17.3C60.3998 17.3 58.4998 15.7 58.4998 12.5ZM67.9998 10.2C67.9998 8.6 66.7998 7.8 64.3998 7.8C61.9998 7.8 60.7998 8.6 60.7998 10.2V12.6C60.7998 14.2 61.9998 15 64.3998 15C66.7998 15 67.9998 14.2 67.9998 12.6V10.2ZM72.6998 12.5V10.1C72.6998 6.9 74.6998 5.3 78.5998 5.3C80.9998 5.3 82.1998 4.5 82.1998 2.9V0.800003C82.1998 0.700003 82.2998 0.5 82.4998 0.5H84.3998C84.4998 0.5 84.6998 0.600003 84.6998 0.800003V12.4C84.6998 15.6 82.6998 17.2 78.7998 17.2C74.6998 17.3 72.6998 15.7 72.6998 12.5ZM82.1998 12.5V7.5C82.1998 7.3 81.9998 7.2 81.8998 7.3C80.9998 7.6 79.9998 7.8 78.6998 7.8C76.2998 7.8 75.0998 8.6 75.0998 10.2V12.6C75.0998 14.2 76.2998 15 78.6998 15C81.0998 15 82.1998 14.1 82.1998 12.5ZM86.9998 12.5V5.6C86.9998 5.5 87.0998 5.3 87.2998 5.3H89.1998C89.2998 5.3 89.4998 5.4 89.4998 5.6V12.5C89.4998 14.1 90.6998 14.9 93.0998 14.9C95.3998 14.9 96.5998 14.1 96.6998 12.6V5.6C96.6998 5.5 96.7998 5.3 96.9998 5.3H98.8998C98.9998 5.3 99.1998 5.4 99.1998 5.6V17C99.1998 17.1 99.0998 17.3 98.8998 17.3H96.9998C96.8998 17.3 96.6998 17.2 96.6998 17C96.6998 16.8 96.4998 16.7 96.3998 16.8C95.4998 17.1 94.4998 17.3 93.1998 17.3C88.9998 17.3 86.9998 15.7 86.9998 12.5ZM103.7 0.900002V17C103.7 17.1 103.6 17.3 103.4 17.3H101.5C101.4 17.3 101.2 17.2 101.2 17V0.900002C101.2 0.800002 101.3 0.599998 101.5 0.599998H103.4C103.5 0.599998 103.7 0.800002 103.7 0.900002ZM106 12.5V10.1C106 6.9 108 5.3 111.9 5.3C113.2 5.3 114.3 5.5 115.1 5.8C115.3 5.9 115.4 5.7 115.4 5.6C115.4 5.5 115.5 5.3 115.7 5.3H117.6C117.7 5.3 117.9 5.4 117.9 5.6V17C117.9 17.1 117.8 17.3 117.6 17.3H115.7C115.6 17.3 115.4 17.2 115.4 17C115.4 16.8 115.2 16.7 115.1 16.8C114.2 17.1 113.2 17.3 111.9 17.3C108 17.3 106 15.7 106 12.5ZM115.5 10.2C115.5 8.6 114.3 7.8 111.9 7.8C109.5 7.8 108.3 8.6 108.3 10.2V12.6C108.3 14.2 109.5 15 111.9 15C114.3 15 115.5 14.2 115.5 12.6V10.2ZM120.3 10.2C120.3 7.1 122.2 5.5 126 5.4C126.1 5.4 126.3 5.5 126.3 5.7V7.6C126.3 7.7 126.2 7.8 126.1 7.9C123.9 8 122.8 8.7 122.8 10.3V17.2C122.8 17.3 122.7 17.5 122.5 17.5H120.6C120.5 17.5 120.3 17.4 120.3 17.2V10.2ZM47.8998 29.4C47.9998 29.4 48.1998 29.5 48.1998 29.7C48.0998 32.5 46.1998 33.9 42.5998 33.9C38.8998 33.9 36.9998 32.4 36.9998 29.4V27.2C36.9998 24.2 38.8998 22.7 42.5998 22.7C46.1998 22.7 48.0998 24.1 48.1998 26.9C48.1998 27 48.0998 27.2 47.8998 27.2H46.1998C46.0998 27.2 45.9998 27.1 45.8998 27C45.7998 25.7 44.6998 25 42.5998 25C40.3998 25 39.1998 25.7 39.1998 27.2V29.4C39.1998 30.9 40.2998 31.6 42.5998 31.6C44.6998 31.6 45.7998 30.9 45.8998 29.6C45.8998 29.5 45.9998 29.4 46.1998 29.4H47.8998ZM50.3998 27.2C50.3998 24.3 52.1998 22.8 55.6998 22.7C55.7998 22.7 55.9998 22.8 55.9998 23V24.7C55.9998 24.8 55.8998 24.9 55.7998 25C53.6998 25.1 52.6998 25.8 52.6998 27.2V33.6C52.6998 33.7 52.5998 33.9 52.3998 33.9H50.6998C50.5998 33.9 50.3998 33.8 50.3998 33.6V27.2ZM69.3998 33.9C69.3998 36.9 67.4998 38.4 63.7998 38.4H60.6998C60.5998 38.4 60.3998 38.3 60.3998 38.1V36.4C60.3998 36.3 60.4998 36.1 60.6998 36.1H63.7998C65.2998 36.1 66.1998 35.8 66.6998 35.1C66.7998 35 66.7998 34.9 66.6998 34.8C66.1998 34.2 65.1998 33.9 63.7998 33.9C60.0998 33.9 58.1998 32.4 58.1998 29.4V23C58.1998 22.9 58.2998 22.7 58.4998 22.7H60.1998C60.2998 22.7 60.4998 22.8 60.4998 23V29.4C60.4998 30.9 61.5998 31.6 63.8998 31.6C65.0998 31.6 66.0998 31.7 66.8998 32C67.0998 32.1 67.1998 31.9 67.1998 31.8V23C67.1998 22.9 67.2998 22.7 67.4998 22.7H69.1998C69.2998 22.7 69.4998 22.8 69.4998 23V33.9H69.3998ZM82.7998 27.2V29.4C82.7998 32.4 80.8998 33.9 77.1998 33.9C74.9998 33.9 73.8998 34.6 73.7998 36V38.1C73.7998 38.2 73.6998 38.4 73.4998 38.4H71.7998C71.6998 38.4 71.4998 38.3 71.4998 38.1V27.2C71.4998 24.2 73.3998 22.7 77.0998 22.7C80.8998 22.7 82.7998 24.2 82.7998 27.2ZM73.8998 27.2V31.9C73.8998 32.1 74.0998 32.2 74.1998 32.1C74.9998 31.8 75.9998 31.6 77.1998 31.6C79.3998 31.6 80.5998 30.9 80.5998 29.4V27.2C80.5998 25.7 79.4998 25 77.1998 25C74.9998 24.9 73.8998 25.7 73.8998 27.2ZM91.6998 31.9V33.6C91.6998 33.7 91.5998 33.9 91.3998 33.9H90.4998C86.7998 33.9 84.8998 32.4 84.8998 29.4V18.5C84.8998 18.4 84.9998 18.2 85.1998 18.2H86.8998C86.9998 18.2 87.1998 18.3 87.1998 18.5V20.6C87.1998 22 88.2998 22.7 90.2998 22.7C90.3998 22.7 90.4998 22.8 90.4998 23V24.7C90.4998 24.8 90.3998 25 90.1998 25C89.0998 25 88.1998 24.8 87.3998 24.5C87.1998 24.4 87.0998 24.6 87.0998 24.7V29.4C87.0998 30.9 88.1998 31.6 90.4998 31.6H91.3998C91.5998 31.6 91.6998 31.8 91.6998 31.9ZM93.9998 29.4V27.2C93.9998 24.2 95.8998 22.7 99.5998 22.7C103.3 22.7 105.2 24.2 105.2 27.2V29.4C105.2 32.4 103.3 33.9 99.5998 33.9C95.7998 33.9 93.9998 32.4 93.9998 29.4ZM102.9 27.2C102.9 25.7 101.8 25 99.4998 25C97.2998 25 96.0998 25.7 96.0998 27.2V29.4C96.0998 30.9 97.1998 31.6 99.4998 31.6C101.7 31.6 102.9 30.9 102.9 29.4V27.2Z" fill="white"/>
</svg>
