<svg xmlns:xlink="http://www.w3.org/1999/xlink" width="250" height="46.73" viewBox="0 0 107 20" fill="none" xmlns="http://www.w3.org/2000/svg" class="h-8 mr-2"><path d="M34.922 7.25152C34.2126 6.80157 33.4294 6.57541 32.5723 6.57541C31.9962 6.57541 31.4486 6.69682 30.932 6.93965C30.4154 7.18248 29.975 7.55386 29.6131 8.04904C29.5536 8.13237 29.5013 8.22283 29.4465 8.31091V2.2783H26.6992V17.7241H29.4465V16.2314C29.5108 16.3362 29.5751 16.4433 29.6465 16.5385C30.0298 17.048 30.4773 17.4098 30.9868 17.6241C31.4963 17.8384 32.0248 17.9455 32.5723 17.9455C33.5317 17.9455 34.3626 17.6979 35.0649 17.2027C35.7672 16.7075 36.3028 16.029 36.6718 15.1649C37.0408 14.3007 37.2265 13.3294 37.2265 12.2509C37.2265 11.0534 37.0194 10.0345 36.6052 9.19176C36.1909 8.34901 35.6315 7.70384 34.922 7.25152ZM34.1459 13.9341C33.9245 14.4078 33.6174 14.7721 33.227 15.0315C32.8342 15.291 32.3652 15.4196 31.82 15.4196C31.2748 15.4196 30.8249 15.2863 30.4345 15.0196C30.044 14.753 29.7393 14.384 29.5251 13.9126C29.3108 13.4389 29.2037 12.8866 29.2037 12.2509C29.2037 11.6153 29.3108 11.0606 29.5251 10.5892C29.7393 10.1155 30.0417 9.75122 30.4345 9.49173C30.8249 9.23461 31.2868 9.10368 31.82 9.10368C32.3533 9.10368 32.8366 9.23223 33.227 9.49173C33.6174 9.75122 33.9245 10.1131 34.1459 10.5773C34.3673 11.0415 34.4792 11.601 34.4792 12.2509C34.4792 12.9008 34.3673 13.4627 34.1459 13.9341Z" fill="#303A1F"></path><path d="M42.8997 15.3982C42.664 15.3982 42.4711 15.3363 42.3235 15.2101C42.1759 15.0839 42.1021 14.8673 42.1021 14.5554V2.2783H39.3763V15.0887C39.3763 16.079 39.6191 16.8028 40.1071 17.2598C40.5952 17.7193 41.2141 17.9479 41.9688 17.9479C42.2045 17.9479 42.4759 17.9217 42.7782 17.8693C43.0806 17.8169 43.3877 17.7336 43.6972 17.6146V15.2648C43.5496 15.3101 43.4091 15.3434 43.2758 15.3648C43.1425 15.3863 43.0163 15.3982 42.8997 15.3982Z" fill="#303A1F"></path><path d="M53.4032 7.30865C52.5747 6.82062 51.6367 6.57779 50.5892 6.57779C49.5417 6.57779 48.5752 6.82062 47.7419 7.30865C46.9063 7.79669 46.254 8.46566 45.7803 9.31318C45.3065 10.1631 45.0708 11.1415 45.0708 12.2509C45.0708 13.3603 45.3113 14.3221 45.7898 15.1863C46.2707 16.0505 46.923 16.7266 47.7515 17.2146C48.5799 17.7027 49.5251 17.9455 50.5892 17.9455C51.6534 17.9455 52.5771 17.6979 53.4032 17.2027C54.2316 16.7075 54.8816 16.0314 55.3529 15.1744C55.8267 14.3173 56.0624 13.3436 56.0624 12.2485C56.0624 11.1534 55.8267 10.1631 55.3529 9.3108C54.8792 8.4609 54.2293 7.79193 53.4032 7.30627V7.30865ZM52.9723 14.0007C52.758 14.4888 52.4485 14.8649 52.0414 15.1315C51.6343 15.3982 51.1511 15.5315 50.5892 15.5315C50.0274 15.5315 49.5179 15.3982 49.1037 15.1315C48.6894 14.8649 48.3728 14.4888 48.1514 14.0007C47.93 13.5127 47.8181 12.9294 47.8181 12.2509C47.8181 11.5724 47.93 10.9701 48.1514 10.4892C48.3728 10.0083 48.6918 9.63933 49.1037 9.37984C49.5179 9.12272 50.0131 8.99179 50.5892 8.99179C51.1653 8.99179 51.6343 9.12034 52.0414 9.37984C52.4485 9.63933 52.758 10.0083 52.9723 10.4892C53.1865 10.9701 53.2937 11.5558 53.2937 12.2509C53.2937 12.9461 53.1865 13.5151 52.9723 14.0007Z" fill="#303A1F"></path><path d="M61.6046 9.44649C61.9879 9.12987 62.4759 8.97036 63.0663 8.97036C63.7019 8.97036 64.1995 9.13701 64.5614 9.4703C64.9232 9.80359 65.1922 10.2274 65.3708 10.744L67.7634 9.79169C67.3634 8.71325 66.7587 7.90858 65.9469 7.37531C65.1351 6.84442 64.1733 6.57779 63.0663 6.57779C62.1807 6.57779 61.407 6.73729 60.7499 7.05392C60.0928 7.37293 59.5382 7.79669 59.0882 8.32758C58.6383 8.85847 58.3002 9.46554 58.0788 10.144C57.8574 10.8225 57.7479 11.5248 57.7479 12.2485C57.7479 12.9723 57.8574 13.696 58.0788 14.3769C58.3002 15.0554 58.6359 15.6624 59.0882 16.1933C59.5382 16.7242 60.0928 17.1503 60.7499 17.467C61.407 17.7836 62.1783 17.9431 63.0663 17.9431C64.1733 17.9431 65.1351 17.6765 65.9469 17.1456C66.7587 16.6147 67.3658 15.8005 67.7634 14.7078L65.3708 13.7555C65.1946 14.2864 64.9232 14.7197 64.5614 15.053C64.1995 15.3863 63.6996 15.5529 63.0663 15.5529C62.4759 15.5529 61.9879 15.3934 61.6046 15.0768C61.2189 14.7601 60.9404 14.3459 60.7618 13.8364C60.5833 13.327 60.4952 12.7985 60.4952 12.2509C60.4952 11.7034 60.5833 11.1796 60.7618 10.6773C60.938 10.175 61.2189 9.7655 61.6046 9.44649Z" fill="#303A1F"></path><path d="M80.0429 6.79919H76.5409L72.5961 10.9511V2.2783H69.825V17.7241H72.5961V14.3721L74.0578 12.7366L77.2265 17.7241H80.5071L76.0743 10.8749L80.0429 6.79919Z" fill="#303A1F"></path><path d="M86.0707 4.7161C86.2183 4.48042 86.4707 4.36139 86.8254 4.36139C86.9873 4.36139 87.1492 4.38757 87.3134 4.43995C87.4753 4.49232 87.63 4.55422 87.7776 4.62802L88.6633 2.52351C88.3538 2.37591 88.0324 2.26164 87.6991 2.18069C87.3682 2.09975 86.9706 2.05928 86.5135 2.05928C85.9088 2.05928 85.3422 2.16403 84.8185 2.36877C84.2947 2.57588 83.8757 2.93775 83.5662 3.45435C83.2568 3.97096 83.0996 4.70182 83.0996 5.64933V6.80157H81.1046V8.95131H83.0782V17.7288H85.8493V8.95131H88.1752V6.80157H85.8493V5.67075C85.8493 5.2708 85.9231 4.95417 86.0707 4.71849V4.7161Z" fill="#303A1F"></path><path d="M96.9742 11.1415C96.9742 12.0271 96.9099 12.8009 96.7861 13.4579C96.6599 14.115 96.4314 14.6292 96.0981 14.9982C95.7648 15.3672 95.2744 15.5529 94.6245 15.5529C94.0936 15.5529 93.6746 15.4386 93.3722 15.2101C93.0699 14.9815 92.858 14.6697 92.7413 14.2793C92.6223 13.8888 92.5652 13.4413 92.5652 12.9389V6.80157H89.8179V13.6269C89.8179 14.4983 89.9631 15.2601 90.2512 15.91C90.5392 16.5599 90.982 17.0623 91.5796 17.417C92.1771 17.7717 92.9199 17.9479 93.8079 17.9479C94.5768 17.9479 95.2791 17.7622 95.9124 17.3932C96.3385 17.1456 96.6885 16.7813 96.9766 16.3195V17.7265H99.7238V6.79919H96.9766V11.1415H96.9742Z" fill="#303A1F"></path><path d="M106.304 15.3648C106.171 15.3863 106.045 15.3982 105.928 15.3982C105.692 15.3982 105.499 15.3363 105.352 15.2101C105.204 15.0839 105.13 14.8673 105.13 14.5554V2.2783H102.404V15.0887C102.404 16.079 102.647 16.8028 103.135 17.2598C103.623 17.7193 104.242 17.9479 104.997 17.9479C105.233 17.9479 105.504 17.9217 105.806 17.8693C106.109 17.8169 106.416 17.7336 106.725 17.6146V15.2648C106.578 15.3101 106.437 15.3434 106.304 15.3648Z" fill="#303A1F"></path><path d="M16.529 4.01143L10.1678 0.338055C9.78455 0.116653 9.34413 0 8.89894 0C8.45376 0 8.01333 0.116653 7.63004 0.338055L1.2689 4.01143C0.485656 4.46375 0 5.30651 0 6.20878V13.7912C0 14.6935 0.485656 15.5362 1.2689 15.9886L7.63004 19.6619C8.01333 19.8833 8.45376 20 8.89894 20C9.34413 20 9.78455 19.8833 10.1678 19.6619L16.529 15.9886C17.3122 15.5362 17.7979 14.6935 17.7979 13.7912V6.20878C17.7979 5.30413 17.3122 4.46375 16.529 4.01143ZM15.6243 6.20878V12.7485L9.98691 9.49411V2.74253L15.4434 5.89216C15.5553 5.95643 15.6267 6.07785 15.6267 6.20878H15.6243ZM2.17355 6.20878C2.17355 6.08023 2.24259 5.95881 2.35686 5.89216L7.81336 2.74253V9.49173L2.17355 12.7461V6.2064V6.20878Z" fill="#303A1F"></path></svg>